<svg id="Layer_1" data-name="Layer 1" xmlns="http://www.w3.org/2000/svg" xmlns:xlink="http://www.w3.org/1999/xlink" viewBox="0 0 108.67 140.95"><defs><style>.cls-1{fill:url(#linear-gradient);}.cls-2{fill:url(#linear-gradient-2);}.cls-3{fill:url(#linear-gradient-3);}.cls-4{fill:url(#linear-gradient-4);}.cls-5{fill:url(#linear-gradient-5);}.cls-6{fill:url(#linear-gradient-6);}.cls-7{fill:url(#linear-gradient-7);}.cls-8{fill:url(#linear-gradient-8);}.cls-9{fill:url(#linear-gradient-9);}.cls-10{fill:url(#linear-gradient-10);}.cls-11{fill:url(#linear-gradient-11);}.cls-12{fill:url(#linear-gradient-12);}.cls-13{fill:url(#linear-gradient-13);}.cls-14{fill:url(#linear-gradient-14);}.cls-15{fill:url(#linear-gradient-15);}.cls-16{fill:url(#linear-gradient-16);}.cls-17{fill:url(#linear-gradient-17);}.cls-18{fill:url(#linear-gradient-18);}.cls-19{fill:url(#linear-gradient-19);}.cls-20{fill:url(#linear-gradient-20);}.cls-21{fill:url(#linear-gradient-21);}.cls-22{fill:url(#linear-gradient-22);}</style><linearGradient id="linear-gradient" x1="11.19" y1="104.25" x2="102.13" y2="116.79" gradientUnits="userSpaceOnUse"><stop offset="0" stop-color="#df9e26"/><stop offset="0" stop-color="#f9ca28"/><stop offset="0.32" stop-color="#e3af24"/><stop offset="0.68" stop-color="#fdf392"/><stop offset="1" stop-color="#ffd540"/></linearGradient><linearGradient id="linear-gradient-2" x1="10.45" y1="109.62" x2="101.39" y2="122.17" xlink:href="#linear-gradient"/><linearGradient id="linear-gradient-3" x1="11.84" y1="99.51" x2="102.79" y2="112.06" xlink:href="#linear-gradient"/><linearGradient id="linear-gradient-4" x1="11.29" y1="103.56" x2="102.23" y2="116.1" xlink:href="#linear-gradient"/><linearGradient id="linear-gradient-5" x1="10.34" y1="110.39" x2="101.29" y2="122.93" xlink:href="#linear-gradient"/><linearGradient id="linear-gradient-6" x1="10.96" y1="105.94" x2="101.9" y2="118.48" xlink:href="#linear-gradient"/><linearGradient id="linear-gradient-7" x1="13.43" y1="87.98" x2="104.38" y2="100.52" xlink:href="#linear-gradient"/><linearGradient id="linear-gradient-8" x1="7.05" y1="134.24" x2="98" y2="146.79" xlink:href="#linear-gradient"/><linearGradient id="linear-gradient-9" x1="8.42" y1="124.33" x2="99.36" y2="136.88" xlink:href="#linear-gradient"/><linearGradient id="linear-gradient-10" x1="8.2" y1="125.96" x2="99.14" y2="138.5" xlink:href="#linear-gradient"/><linearGradient id="linear-gradient-11" x1="7.31" y1="132.4" x2="98.25" y2="144.94" xlink:href="#linear-gradient"/><linearGradient id="linear-gradient-12" x1="7.24" y1="132.86" x2="98.19" y2="145.4" xlink:href="#linear-gradient"/><linearGradient id="linear-gradient-13" x1="8.74" y1="122.04" x2="99.68" y2="134.59" xlink:href="#linear-gradient"/><linearGradient id="linear-gradient-14" x1="8.04" y1="127.05" x2="98.99" y2="139.6" xlink:href="#linear-gradient"/><linearGradient id="linear-gradient-15" x1="7.02" y1="134.5" x2="97.96" y2="147.05" xlink:href="#linear-gradient"/><linearGradient id="linear-gradient-16" x1="7.55" y1="130.63" x2="98.5" y2="143.17" xlink:href="#linear-gradient"/><linearGradient id="linear-gradient-17" x1="8.74" y1="122.03" x2="99.68" y2="134.57" xlink:href="#linear-gradient"/><linearGradient id="linear-gradient-18" x1="8.04" y1="127.09" x2="98.98" y2="139.63" xlink:href="#linear-gradient"/><linearGradient id="linear-gradient-19" x1="17.2" y1="60.69" x2="108.14" y2="73.23" xlink:href="#linear-gradient"/><linearGradient id="linear-gradient-20" x1="17.01" y1="62.07" x2="107.95" y2="74.62" xlink:href="#linear-gradient"/><linearGradient id="linear-gradient-21" x1="23.25" y1="16.84" x2="114.19" y2="29.38" xlink:href="#linear-gradient"/><linearGradient id="linear-gradient-22" x1="1.81" y1="16.92" x2="92.75" y2="29.46" xlink:href="#linear-gradient"/></defs><path class="cls-1" d="M79.54,113.11a14.36,14.36,0,0,0-.08-2.08,111.1,111.1,0,0,0-12.24,0v3.46c2.57.06,5.07.06,7.57,0a1.2,1.2,0,0,1,0,.35,6,6,0,0,1-2.65,3.8,7,7,0,0,1-5.23.83,6.35,6.35,0,0,1-4.81-3.87,9.36,9.36,0,0,1-.57-4.5,6.76,6.76,0,0,1,1.81-4.2,7,7,0,0,1,7.52-1.57,5.71,5.71,0,0,1,1.32.75,11.66,11.66,0,0,1,1.54,1.73c1.68,0,3.36,0,5,0a2.29,2.29,0,0,0-.31-1.23A9.77,9.77,0,0,0,72,101a13.18,13.18,0,0,0-5-.38,10.39,10.39,0,0,0-7.52,4c-3.11,4-3.44,8.43-1.41,13a10.16,10.16,0,0,0,4.9,5,12.14,12.14,0,0,0,6.25,1.2,10.69,10.69,0,0,0,8.22-4.28A9.07,9.07,0,0,0,79.54,113.11Z" transform="translate(-20.66 -5.52)"/><path class="cls-2" d="M48.8,105.73v1.91a1.1,1.1,0,0,1-.62-.42,7.87,7.87,0,0,0-12.71,3.21,12.14,12.14,0,0,0-.71,4.58,10.38,10.38,0,0,0,1.77,5.57c2.65,3.94,8.73,4.43,11.78,1.12.12-.13.21-.35.48-.27a11.8,11.8,0,0,0,.14,2.12h4.43V105.7A15.76,15.76,0,0,0,48.8,105.73Zm0,8.86a5,5,0,0,1-2.27,4.46,4.51,4.51,0,0,1-6.44-1.66,5.73,5.73,0,0,1,.31-6.25,4.35,4.35,0,0,1,4.23-1.79,4.51,4.51,0,0,1,3.72,2.84A5.37,5.37,0,0,1,48.82,114.59Z" transform="translate(-20.66 -5.52)"/><path class="cls-3" d="M129.31,113.24a8,8,0,0,0-2.82-6,9.23,9.23,0,0,0-10-1.27c-3.14,1.32-4.58,4-5,7.25A10.79,10.79,0,0,0,112,118a8.16,8.16,0,0,0,3.7,4.69,9.63,9.63,0,0,0,6.29,1.15,8.16,8.16,0,0,0,6.18-4.13,3.71,3.71,0,0,0,.66-1.78H124c-1.18,1.43-1.49,1.69-2.41,1.94a4.54,4.54,0,0,1-3.08-.2,3.65,3.65,0,0,1-2.24-3.69h12.76a1.19,1.19,0,0,0,.27-.91A17.61,17.61,0,0,0,129.31,113.24Zm-13.06-.52a3.38,3.38,0,0,1,1.66-2.93,4.38,4.38,0,0,1,5,0,3.18,3.18,0,0,1,1.67,2.92A65.47,65.47,0,0,1,116.25,112.72Z" transform="translate(-20.66 -5.52)"/><path class="cls-4" d="M100.15,113a8.64,8.64,0,0,0-6.84-7.53A9.22,9.22,0,0,0,84.25,108a8.75,8.75,0,0,0-2.49,6.48v.51a8.84,8.84,0,0,0,5.61,8.33,9.84,9.84,0,0,0,5.26.49,8.64,8.64,0,0,0,6.42-4.39A9.93,9.93,0,0,0,100.15,113Zm-5.21,4.25a4.46,4.46,0,0,1-4.82,2.53,4.33,4.33,0,0,1-3.61-3.66,6.85,6.85,0,0,1-.12-1.51,5.6,5.6,0,0,1,1.12-3.74,4.49,4.49,0,0,1,7.28.66A6.34,6.34,0,0,1,94.94,117.22Z" transform="translate(-20.66 -5.52)"/><path class="cls-5" d="M32.94,119.87H25.69a3.78,3.78,0,0,1-.11-1.24V101.92c0-.36.11-.74-.22-1.11-1.39,0-2.82,0-4.18,0a1.07,1.07,0,0,0-.2.75v1.87q0,9.55,0,19.1a1.16,1.16,0,0,0,.23,1c3.85.06,7.77.11,11.75,0A25.21,25.21,0,0,0,32.94,119.87Z" transform="translate(-20.66 -5.52)"/><path class="cls-6" d="M108,105.57c-1.43,0-2.89,0-4.3,0a2.67,2.67,0,0,0-.13,1.21q0,9.67,0,19.34c0,.22,0,.45,0,.68-.07.89-.4,1.23-1.29,1.4a9.43,9.43,0,0,0-1.73.26,14.38,14.38,0,0,0,0,3.59,18.16,18.16,0,0,0,3.76,0,4.3,4.3,0,0,0,3.73-3.66,14.2,14.2,0,0,0,.18-2.61q0-9.54,0-19.08A1.47,1.47,0,0,0,108,105.57Z" transform="translate(-20.66 -5.52)"/><path class="cls-7" d="M105.86,98a2.73,2.73,0,1,0,.08,5.46,2.73,2.73,0,1,0-.08-5.46Z" transform="translate(-20.66 -5.52)"/><path class="cls-8" d="M39.22,134.06a2.33,2.33,0,0,0-1.2,0c-.24.32,0,.69-.24.95-.21,0-.28-.15-.39-.26a4,4,0,0,0-6.29,1.56,5.22,5.22,0,0,0,0,3.79,3.94,3.94,0,0,0,6.35,1.53c.09-.09.18-.22.36-.17.19.29-.06.68.23,1a1.7,1.7,0,0,0,1.25-.09A59.56,59.56,0,0,0,39.22,134.06Zm-2.95,7a2.75,2.75,0,0,1-4-2.39c0-.13,0-.26,0-.4a2.76,2.76,0,0,1,1.23-2.64,2.81,2.81,0,0,1,4.13,1.24A3.22,3.22,0,0,1,36.27,141Z" transform="translate(-20.66 -5.52)"/><path class="cls-9" d="M112.63,134.83a.93.93,0,0,0-.2-.78,2.4,2.4,0,0,0-1.13,0c-.24.31,0,.68-.29,1.05a4,4,0,0,0-6.35.71,4.93,4.93,0,0,0-.38,4,3.93,3.93,0,0,0,6.39,1.94c.1-.11.2-.27.4-.23.22.29,0,.7.3,1a2.88,2.88,0,0,0,1.21-.11,1.88,1.88,0,0,0,.06-.31Q112.64,138.46,112.63,134.83Zm-4.58,6.46a2.62,2.62,0,0,1-1.77-.87,3.57,3.57,0,0,1-.27-4.07,2.79,2.79,0,0,1,3-1.13,2.87,2.87,0,0,1,2.08,2.5c0,.19,0,.38,0,.57A2.81,2.81,0,0,1,108.05,141.29Z" transform="translate(-20.66 -5.52)"/><path class="cls-10" d="M96,133.92a3.82,3.82,0,0,0-1.83,1A4.69,4.69,0,0,0,93,139.17a4,4,0,0,0,2.28,3.13,4.78,4.78,0,0,0,2.45.32,3.39,3.39,0,0,0,2.51-1.28,2,2,0,0,0,.62-1.46,4.47,4.47,0,0,0-1.36,0c-1.09,1.49-2.1,1.86-3.52,1.31a2.2,2.2,0,0,1-1.51-2.32,2.21,2.21,0,0,1,1-.08c1.56.1,3.13.06,4.69,0a.57.57,0,0,0,.93-.37A4,4,0,0,0,96,133.92Zm-1.48,3.59a2.27,2.27,0,0,1,2.09-2.37,2.47,2.47,0,0,1,3,2.37Z" transform="translate(-20.66 -5.52)"/><path class="cls-11" d="M65.93,134l-2.56,6.59c-1-2.3-1.71-4.48-2.66-6.56a3.22,3.22,0,0,0-1.44.09c1,2.79,2.17,5.5,3.22,8.25-.5,1.34-1.12,2.62-1.56,4a3.91,3.91,0,0,0,1.5-.05,130.77,130.77,0,0,0,4.9-12.32A3.64,3.64,0,0,0,65.93,134Z" transform="translate(-20.66 -5.52)"/><path class="cls-12" d="M48.1,138.18a18.66,18.66,0,0,0-2.53-.82,1.49,1.49,0,0,1-1.14-1.1c.25-.82.52-1,1.28-1.13,1.19-.11,1.67.17,2.27,1.38a1.94,1.94,0,0,0,1.35-.1,2.52,2.52,0,0,0-1.59-2.31,4.25,4.25,0,0,0-3-.07A2.57,2.57,0,0,0,43,136.14a2.42,2.42,0,0,0,1.5,2.2,10.71,10.71,0,0,0,1.68.57,4.72,4.72,0,0,1,1.35.52.87.87,0,0,1,.29,1.26,1.4,1.4,0,0,1-.68.54A2.28,2.28,0,0,1,44.2,140a3.75,3.75,0,0,0-1.32,0,2.45,2.45,0,0,0,1.21,2,4.13,4.13,0,0,0,4.08.2,2.26,2.26,0,0,0-.07-4.06Z" transform="translate(-20.66 -5.52)"/><path class="cls-13" d="M128,138.18a19.13,19.13,0,0,0-2.53-.82,1.5,1.5,0,0,1-1.15-1.1c.25-.82.52-1,1.28-1.13,1.19-.11,1.67.17,2.28,1.38a1.9,1.9,0,0,0,1.34-.1,2.49,2.49,0,0,0-1.58-2.31,4.25,4.25,0,0,0-3-.07,2.56,2.56,0,0,0-1.76,2.11,2.39,2.39,0,0,0,1.5,2.2,11,11,0,0,0,1.67.57,4.61,4.61,0,0,1,1.35.52.88.88,0,0,1,.3,1.26,1.4,1.4,0,0,1-.68.54,2.27,2.27,0,0,1-2.92-1.21,3.8,3.8,0,0,0-1.33,0,2.47,2.47,0,0,0,1.21,2,4.13,4.13,0,0,0,4.08.2,2.26,2.26,0,0,0-.06-4.06Z" transform="translate(-20.66 -5.52)"/><path class="cls-14" d="M82.63,131.64c-2.36-.08-4.73-.06-7.1,0a1.19,1.19,0,0,0,.06,1,20.87,20.87,0,0,0,2.77.32v9.42a2.12,2.12,0,0,0,1.55,0c0-3.16,0-6.3,0-9.46,1-.17,1.91,0,2.78-.2A1.59,1.59,0,0,0,82.63,131.64Z" transform="translate(-20.66 -5.52)"/><path class="cls-15" d="M27.89,131.71a35,35,0,0,0-7.17.1,1.1,1.1,0,0,0,.08.88c.85.34,1.8,0,2.76.31v9.41a2.3,2.3,0,0,0,1.51,0V133c1-.18,2,0,2.84-.21A1.15,1.15,0,0,0,27.89,131.71Z" transform="translate(-20.66 -5.52)"/><path class="cls-16" d="M56.86,141.4a2.05,2.05,0,0,0-1-.14c-.87-.09-1.14-.35-1.15-1.22,0-1.4,0-2.8,0-4.2a.8.8,0,0,1,.13-.58,3.36,3.36,0,0,1,.91-.08c.34,0,.7.06,1-.16a1,1,0,0,0,0-.94c-.65-.26-1.39,0-2-.24-.17-.69.08-1.37-.17-2.05a2.73,2.73,0,0,0-1.3.1c-.18.66,0,1.34-.13,2-.3.27-.68.1-1,.33a1.25,1.25,0,0,0,0,.85c.28.17.65,0,.91.24a2.16,2.16,0,0,1,.09,1c0,1.43,0,2.85,0,4.28a1.78,1.78,0,0,0,1.11,1.81,4.37,4.37,0,0,0,2.46.13A1.72,1.72,0,0,0,56.86,141.4Z" transform="translate(-20.66 -5.52)"/><path class="cls-17" d="M120.46,141.33a3.77,3.77,0,0,0-.95-.07c-.81-.08-1.09-.36-1.1-1.18v-4.2c0-.21,0-.44.16-.63.62-.17,1.32,0,2-.2a3.07,3.07,0,0,0,0-1c-.71-.27-1.45,0-2.07-.28-.15-.67,0-1.32-.15-2a2.15,2.15,0,0,0-1.28,0c-.28.69.07,1.42-.22,2-.29.19-.63.05-.89.27a.88.88,0,0,0,0,.82c.27.23.67,0,.91.33a2,2,0,0,1,.07.87c0,1.45,0,2.9,0,4.36a1.75,1.75,0,0,0,1,1.76,3.92,3.92,0,0,0,2.51.11,3,3,0,0,0,.06-.54C120.54,141.69,120.62,141.49,120.46,141.33Z" transform="translate(-20.66 -5.52)"/><path class="cls-18" d="M90.13,133.89a2.78,2.78,0,0,0-2.5,1c-.2-.27,0-.59-.29-.82a1.93,1.93,0,0,0-1.19.1v8.18a2,2,0,0,0,1.29.11,8.49,8.49,0,0,0,.08-1.73c0-1.07,0-2.14,0-3.22a2.06,2.06,0,0,1,1.74-2.11c.28-.07.6,0,.9-.19A1.8,1.8,0,0,0,90.13,133.89Z" transform="translate(-20.66 -5.52)"/><path class="cls-19" d="M105.4,68.91A5.22,5.22,0,0,0,101,65.26c-2.35-.17-4.7-.11-7-.07a4.45,4.45,0,0,0-3.76,2.12l-.26.35a5.08,5.08,0,0,1-2.63-1.1,6.27,6.27,0,0,0-4.72-1.22c-3.33.39-6.68.75-10,1.12-.25,0-.52,0-.72.2s-.17.53.15.87h10.4a50.34,50.34,0,0,1-6,.56c-1.27.08-2.54.19-3.81.28-.33,0-.7,0-.83.42,0,.49.42.45.76.45,1.58,0,3.16.14,4.74.2s3.09.13,4.64.28L72,70.31c-.25.32-.32.57-.09.86a1.19,1.19,0,0,0,.79.17l8.31.28h1.14a.3.3,0,0,1-.25.12c-3,0-5.93.22-8.9.2a4,4,0,0,0-.6,0c-.62.08-.73.35-.4,1a1.32,1.32,0,0,0,.65.15c1.78.09,3.54.37,5.32.5s3.76.44,5.66.4a5.22,5.22,0,0,0,3.84-1.51,4.07,4.07,0,0,1,2.06-1.07c.12.07.16.08.17.1s.18.29.26.44a4.58,4.58,0,0,0,4.35,2.56,3.41,3.41,0,0,1,1.27.07,1.45,1.45,0,0,1-.21.81,13.82,13.82,0,0,1-7.77,7.74,14.38,14.38,0,0,1-7.49.88,12.87,12.87,0,0,1-5.48-1.9,14.18,14.18,0,0,1-5.87-7,15.74,15.74,0,0,1-.74-7.93,13.53,13.53,0,0,1,7.28-10.27A14.22,14.22,0,0,1,86.92,56a13.16,13.16,0,0,1,6.23,4.23A4.72,4.72,0,1,0,100.23,54a22.73,22.73,0,0,0-9.93-6.86,25.19,25.19,0,0,0-12.39-.93,21.88,21.88,0,0,0-14,8.09,22.7,22.7,0,0,0-5.19,14.82,29.63,29.63,0,0,0,.12,3.39A22.66,22.66,0,0,0,68.66,89.4a21.65,21.65,0,0,0,12.66,4A36.28,36.28,0,0,0,86,93.25a22.39,22.39,0,0,0,9.78-3.83,22.89,22.89,0,0,0,9-12.32,24.34,24.34,0,0,0,.9-5.17A8.06,8.06,0,0,0,105.4,68.91Z" transform="translate(-20.66 -5.52)"/><path class="cls-20" d="M63.09,88.47A4.68,4.68,0,0,0,58.6,85c-.4,0-.79,0-1.19,0-4.75,0-9.51,0-14.26,0-.33,0-.68.1-1-.14a2.38,2.38,0,0,1-.1-1.09q0-10.61,0-21.22a4.34,4.34,0,0,0-1.22-3.06A5.34,5.34,0,0,0,38.38,58a8.29,8.29,0,0,1,.4-4,7.91,7.91,0,0,0,1.59-1.18,9.8,9.8,0,0,0,2.19-4,14.29,14.29,0,0,0,.31-6.47,9.67,9.67,0,0,0-2.34-5.26,4.29,4.29,0,0,0-6.28-.37A6.61,6.61,0,0,0,32.63,39a14.24,14.24,0,0,0-.86,8.8c.52,2.59,1.54,4.93,4.09,6.2a7.27,7.27,0,0,1,.51,3.93l-.11.13-.3.16A4.77,4.77,0,0,0,32.89,63q0,12.9,0,25.8a5.31,5.31,0,0,0,2.53,4.63,5.84,5.84,0,0,0,3.31.87c1.3,0,2.61,0,3.91,0H58.26a4.88,4.88,0,0,0,2.83-.77A4.7,4.7,0,0,0,63.09,88.47Z" transform="translate(-20.66 -5.52)"/><path class="cls-21" d="M118.43,20.63a9.15,9.15,0,0,0-5.08-6.12,8.78,8.78,0,0,0-6.6-.51,24.77,24.77,0,0,0-2.3,1c-.19-.6-.37-1.16-.54-1.73A9.7,9.7,0,0,0,101,8.67a13.47,13.47,0,0,0-8.43-3.13,13.21,13.21,0,0,0-5.24.82,13.19,13.19,0,0,0-4,2.1c-1.57,1.25-3.16,2.48-4.74,3.71a23.91,23.91,0,0,1-7.2,3.71c-.88.3-1.78.55-2.67.83-.18.05-.42.09-.28.41a33.75,33.75,0,0,0,5.21-.32A19.06,19.06,0,0,0,79.22,15c1.88-1,3.61-2.23,5.43-3.33a15.52,15.52,0,0,1,5.11-2,16,16,0,0,1,3.73-.09,8.65,8.65,0,0,1,8.16,5.84,1.74,1.74,0,0,1,0,1.48,10.41,10.41,0,0,0-.77,2.24,1,1,0,0,0,0,.84c.4-.07.57-.42.82-.68A8.61,8.61,0,0,1,104,17.48a8.51,8.51,0,0,1,7.92-.27,6.61,6.61,0,0,1,4.19,5.9,9.62,9.62,0,0,1-3.6,8.2c-2.36,2-5.12,2.38-8,2A14.82,14.82,0,0,1,100.57,32a1.8,1.8,0,0,1-.89-.59c1.94-2.2,2.7-3.84,2.4-5.2-.33,0-.47.3-.61.52A9.07,9.07,0,0,1,99.32,29a6.47,6.47,0,0,1-5,1.4c-.21,0-.46,0-.59-.25,2.84-2.92,2.86-7.63,1.88-9.27-.22.08-.27.25-.29.47a11.78,11.78,0,0,1-1.42,4.31,7.51,7.51,0,0,1-5.65,4c-.29.05-.56.11-.79-.15,1.13-2.52,1.39-3.87.92-4.79a.42.42,0,0,0-.45.31A8.28,8.28,0,0,1,85.57,28c-3.53,3.13-7.52,3.52-11.79,1.89a11.66,11.66,0,0,1-5.18-4.24c-.16-.23-.27-.49-.62-.55a1.36,1.36,0,0,0,.1,1A10.59,10.59,0,0,0,73,32.07a8.25,8.25,0,0,1-1.84,1.65,6.41,6.41,0,0,1-3.93,1.16,8.27,8.27,0,0,1-6-3.4,9.28,9.28,0,0,1-2.09-4.66,18.84,18.84,0,0,1-.12-2.7,8.11,8.11,0,0,1,4.27-7.23,14.66,14.66,0,0,1,4.55-1.58,27.09,27.09,0,0,0,7.58-2.64,8.49,8.49,0,0,0,2.87-2.5c-.67,0-.68,0-1.07.19A23.94,23.94,0,0,1,68.92,13a37.89,37.89,0,0,0-4.49.88,12.33,12.33,0,0,0-5.38,2.93,11.5,11.5,0,0,0-3.75,9.43,13.52,13.52,0,0,0,1.59,5.32A11.69,11.69,0,0,0,60,35.33,14.27,14.27,0,0,0,65.59,38a16.22,16.22,0,0,0,3.55.21,2.45,2.45,0,0,0,1.5-.47,16.91,16.91,0,0,1,4.54-2.26A42.88,42.88,0,0,1,80.31,34a49.44,49.44,0,0,1,7-1,24.19,24.19,0,0,1,6.84.39,9.54,9.54,0,0,1,3.53,1.38,3.68,3.68,0,0,1,1.87,3.47,4.32,4.32,0,0,0,.09,1,21.65,21.65,0,0,1,.08,3.31.58.58,0,0,1-.44,0,28.36,28.36,0,0,0-10.34-2c-1,0-2,0-3,0s-2,.26-2.94.26a4.76,4.76,0,0,0-.92.14c-.18,0-.34.07-.31.31s.44.17.68.19a39.39,39.39,0,0,1,5.21.61,34.94,34.94,0,0,1,11.51,4.38,24,24,0,0,1,2.56,1.8c.28.22.57.49,1,.2,0-4.23-.46-8.47-.33-12.74,3.06.51,6,.6,8.88-.67a12.09,12.09,0,0,0,6.43-6.21A12.37,12.37,0,0,0,118.43,20.63Z" transform="translate(-20.66 -5.52)"/><polygon class="cls-22" points="35.06 21.47 35.07 21.53 35.03 21.52 35.06 21.47"/></svg>